<svg xmlns="http://www.w3.org/2000/svg" viewBox="0 0 544.62 206"><defs><style>.cls-1{fill:#010101;}</style></defs><g id="Calque_2" data-name="Calque 2"><g id="Calque_1-2" data-name="Calque 1"><path class="cls-1" d="M491.54,0H20.46A20.46,20.46,0,0,0,0,20.46V185.54A20.46,20.46,0,0,0,20.46,206H491.54A20.46,20.46,0,0,0,512,185.54V20.46A20.46,20.46,0,0,0,491.54,0ZM114.83,28.38A37.31,37.31,0,1,1,77.52,65.69,37.31,37.31,0,0,1,114.83,28.38Zm56,149.24H58.87a9.36,9.36,0,0,1-9.33-9.33,46.62,46.62,0,0,1,46.63-46.64h37.31a46.63,46.63,0,0,1,46.64,46.64A9.36,9.36,0,0,1,170.79,177.62Z"/><path class="cls-1" d="M544.62,23a8,8,0,0,0-16,0V55a8,8,0,0,0,16,0Z"/><path class="cls-1" d="M536.62,79a8,8,0,0,0-8,8v32a8,8,0,0,0,16,0V87A8,8,0,0,0,536.62,79Z"/><path class="cls-1" d="M544.62,151a8,8,0,0,0-16,0v32a8,8,0,0,0,16,0Z"/></g></g></svg>