<svg xmlns="http://www.w3.org/2000/svg" viewBox="0 0 268.22 214.16"><defs><style>.cls-1{fill:#2c59a4;}.cls-2{fill:#f0801d;}</style></defs><g id="Calque_2" data-name="Calque 2"><g id="Calque_1-2" data-name="Calque 1"><path class="cls-1" d="M256,157.58c-4.27-3.69-8.22-7.36-12.44-10.67-2.64-2.06-1.2-4-.43-6,8.94-23.23,8.43-46.31-1.48-69.07-15.9-36.52-53.94-57.5-94.07-52.13C109,24.83,77.65,55.83,71.84,94.47c-2.35,15.67-1,30.94,5.08,45.64,1.43,3.5,1.23,5.77-1.91,8.35C56.87,163.4,38.94,178.6,20.86,193.62c-6,5-13.42,4.5-17.9-.9C-1.65,187.16-.86,180.18,5.2,175c15.65-13.34,31.44-26.53,47-40,1.35-1.18,1.95-4.28,1.58-6.24-3.47-18.52-2.88-36.87,3.49-54.58C72.05,33,101.18,7.69,144.46,1.25,215-9.23,273.87,47.38,267.79,118.5,266.61,132.3,261.45,149.71,256,157.58Z"/><path class="cls-2" d="M99.2,205a9.18,9.18,0,0,0,9.15,9.15H218a9.17,9.17,0,0,0,9.14-9.15h0a45.69,45.69,0,0,0-45.7-45.69h-36.6A45.69,45.69,0,0,0,99.2,205Z"/><circle class="cls-2" cx="163.19" cy="109.34" r="36.57"/></g></g></svg>